<?xml version="1.0" encoding="UTF-8" standalone="no"?>
<svg
   xmlns:dc="http://purl.org/dc/elements/1.1/"
   xmlns:cc="http://creativecommons.org/ns#"
   xmlns:rdf="http://www.w3.org/1999/02/22-rdf-syntax-ns#"
   xmlns:svg="http://www.w3.org/2000/svg"
   xmlns="http://www.w3.org/2000/svg"
   xmlns:sodipodi="http://sodipodi.sourceforge.net/DTD/sodipodi-0.dtd"
   xmlns:inkscape="http://www.inkscape.org/namespaces/inkscape"
   inkscape:version="1.0rc1 (09960d6f05, 2020-04-09)"
   sodipodi:docname="dark_on2.svg"
   id="svg957"
   style="fill-rule:evenodd;clip-rule:evenodd;stroke-linejoin:round;stroke-miterlimit:2;"
   xml:space="preserve"
   version="1.1"
   viewBox="0 0 46 66"
   height="100%"
   width="100%"><metadata
   id="metadata963"><rdf:RDF><cc:Work
       rdf:about=""><dc:format>image/svg+xml</dc:format><dc:type
         rdf:resource="http://purl.org/dc/dcmitype/StillImage" /><dc:title></dc:title></cc:Work></rdf:RDF></metadata><defs
   id="defs961" /><sodipodi:namedview
   inkscape:current-layer="svg957"
   inkscape:window-maximized="1"
   inkscape:window-y="-8"
   inkscape:window-x="-8"
   inkscape:cy="33"
   inkscape:cx="8.8951613"
   inkscape:zoom="3.7575758"
   showgrid="false"
   id="namedview959"
   inkscape:window-height="987"
   inkscape:window-width="1680"
   inkscape:pageshadow="2"
   inkscape:pageopacity="0"
   guidetolerance="10"
   gridtolerance="10"
   objecttolerance="10"
   borderopacity="1"
   bordercolor="#666666"
   pagecolor="#ffffff" />
    <g
   style="fill:#008080;fill-rule:evenodd;opacity:1"
   id="g955"
   transform="matrix(1,0,0,1,-135.032,-812.481)">
        <g
   style="fill:#008080;fill-rule:evenodd"
   transform="matrix(1,0,0,1,-436.732,247.272)"
   id="light_on">
            <path
   style="fill:#008080;fill-opacity:0.7;fill-rule:evenodd"
   d="M586.674,570.821C585.262,571.341 583.548,572.315 581.132,574.976C578.125,578.29 577.102,581.329 576.586,584.345C576.231,586.418 576.486,588.718 576.743,591.158C576.884,592.486 577.552,595.064 579.994,598.312C582.007,600.991 584.772,602.821 587.37,604.626C589.608,606.18 584.329,613.089 587.37,613.081C590.206,613.073 598.13,613.946 602.074,613.081C604.123,612.631 601.326,605 602.074,604.626C604.643,603.342 606.61,601.779 608.15,599.866C611.767,595.373 611.886,594.153 612.637,591.449C613.53,588.228 613.119,584.843 612.187,581.605C611.126,577.924 609.216,575.702 607.025,573.695C602.516,569.566 598.459,569.329 594.722,568.967C592.039,569.257 589.358,569.831 586.674,570.821Z"
   id="path4146-1-4-7" />
            <path
   style="fill:#008080;fill-rule:evenodd"
   d="M584.907,627.638C584.907,629.445 586.385,630.923 588.192,630.923L601.335,630.923C603.142,630.923 604.621,629.445 604.621,627.638L604.621,624.352L584.907,624.352L584.907,627.638ZM594.764,565.209C582.081,565.209 571.764,575.526 571.764,588.209C571.764,596.029 575.674,602.896 581.621,607.069L581.621,614.495C581.621,616.302 583.1,617.781 584.907,617.781L604.621,617.781C606.428,617.781 607.907,616.302 607.907,614.495L607.907,607.069C613.854,602.896 617.764,596.029 617.764,588.209C617.764,575.526 607.447,565.209 594.764,565.209ZM604.128,601.681L601.335,603.652L601.335,611.209L588.192,611.209L588.192,603.652L585.4,601.681C580.964,598.592 578.335,593.565 578.335,588.209C578.335,579.141 585.695,571.781 594.764,571.781C603.832,571.781 611.192,579.141 611.192,588.209C611.192,593.565 608.564,598.592 604.128,601.681Z"
   id="path10-5-5" />
        </g>
    </g>
<path
   inkscape:connector-curvature="0"
   id="path3452"
   d="M 16.479839,42.09724 V 38.28722 L 14.533847,36.92853 C 8.8845372,32.98418 6.063878,27.209659 6.8283,21.153546 7.8753647,12.858204 14.709876,6.7862903 23,6.7862903 c 8.971198,0 16.191703,7.1102557 16.21533,15.9677417 0.0081,3.044223 -0.386252,4.805444 -1.667126,7.44519 -1.158882,2.388334 -3.542813,5.019623 -6.180697,6.822009 l -1.847346,1.262234 v 3.811897 3.811896 H 23 16.479839 Z"
   style="opacity:1;fill:#ffff00;fill-opacity:1;fill-rule:evenodd;stroke:#ffff00;stroke-width:1.00584;stroke-linejoin:round;stroke-dashoffset:1.50803" /></svg>
