<?xml version="1.0" encoding="UTF-8" standalone="no"?>
<svg
   xmlns:dc="http://purl.org/dc/elements/1.1/"
   xmlns:cc="http://creativecommons.org/ns#"
   xmlns:rdf="http://www.w3.org/1999/02/22-rdf-syntax-ns#"
   xmlns:svg="http://www.w3.org/2000/svg"
   xmlns="http://www.w3.org/2000/svg"
   xmlns:sodipodi="http://sodipodi.sourceforge.net/DTD/sodipodi-0.dtd"
   xmlns:inkscape="http://www.inkscape.org/namespaces/inkscape"
   inkscape:version="1.0rc1 (09960d6f05, 2020-04-09)"
   sodipodi:docname="dark_off2.svg"
   id="svg931"
   style="fill-rule:evenodd;clip-rule:evenodd;stroke-linejoin:round;stroke-miterlimit:2;"
   xml:space="preserve"
   version="1.1"
   viewBox="0 0 46 66"
   height="100%"
   width="100%"><metadata
   id="metadata937"><rdf:RDF><cc:Work
       rdf:about=""><dc:format>image/svg+xml</dc:format><dc:type
         rdf:resource="http://purl.org/dc/dcmitype/StillImage" /><dc:title></dc:title></cc:Work></rdf:RDF></metadata><defs
   id="defs935" /><sodipodi:namedview
   inkscape:current-layer="svg931"
   inkscape:window-maximized="1"
   inkscape:window-y="-8"
   inkscape:window-x="-8"
   inkscape:cy="33"
   inkscape:cx="23"
   inkscape:zoom="3.7575758"
   showgrid="false"
   id="namedview933"
   inkscape:window-height="987"
   inkscape:window-width="1680"
   inkscape:pageshadow="2"
   inkscape:pageopacity="0"
   guidetolerance="10"
   gridtolerance="10"
   objecttolerance="10"
   borderopacity="1"
   bordercolor="#666666"
   pagecolor="#ffffff" />
    <g
   style="fill:#008080"
   id="g929"
   transform="matrix(1,0,0,1,-78.2572,-812.481)">
        <g
   style="fill:#008080"
   transform="matrix(1,0,0,1,-423,-318.164)"
   id="light_off">
            <path
   id="path926"
   style="fill:#008080;fill-rule:nonzero"
   d="M514.4,1193.07C514.4,1194.88 515.879,1196.36 517.686,1196.36L530.829,1196.36C532.636,1196.36 534.114,1194.88 534.114,1193.07L534.114,1189.79L514.4,1189.79L514.4,1193.07ZM524.257,1130.64C511.574,1130.64 501.257,1140.96 501.257,1153.64C501.257,1161.46 505.167,1168.33 511.114,1172.51L511.114,1179.93C511.114,1181.74 512.593,1183.22 514.4,1183.22L534.114,1183.22C535.922,1183.22 537.4,1181.74 537.4,1179.93L537.4,1172.51C543.347,1168.33 547.257,1161.46 547.257,1153.64C547.257,1140.96 536.94,1130.64 524.257,1130.64ZM533.622,1167.12L530.829,1169.09L530.829,1176.64L517.686,1176.64L517.686,1169.09L514.893,1167.12C510.457,1164.03 507.829,1159 507.829,1153.64C507.829,1144.58 515.189,1137.22 524.257,1137.22C533.326,1137.22 540.686,1144.58 540.686,1153.64C540.686,1159 538.057,1164.03 533.622,1167.12Z" />
        </g>
    </g>
</svg>
